Coordinates
version=1
nRows=27
nColumns=38
inDegrees=no

Units are S.I. units (second, meters, Newtons, ...)
If the header above contains a line with 'inDegrees', this indicates whether rotational values are in degrees (yes) or radians (no).

endheader
time	pelvis_tilt	pelvis_list	pelvis_rotation	pelvis_tx	pelvis_ty	pelvis_tz	hip_flexion_r	hip_adduction_r	hip_rotation_r	knee_angle_r	ankle_angle_r	subtalar_angle_r	mtp_angle_r	hip_flexion_l	hip_adduction_l	hip_rotation_l	knee_angle_l	ankle_angle_l	subtalar_angle_l	mtp_angle_l	lumbar_extension	lumbar_bending	lumbar_rotation	arm_flex_r	arm_add_r	arm_rot_r	elbow_flex_r	pro_sup_r	wrist_flex_r	wrist_dev_r	arm_flex_l	arm_add_l	arm_rot_l	elbow_flex_l	pro_sup_l	wrist_flex_l	wrist_dev_l
0	2.23499	1.4807	-0.548456	0.818704	-0.613571	1.03941	0.379861	0.0588781	0.0423398	0.655452	-0.272926	0	0	-0.298583	-0.202167	-0.330879	0.617869	-0.356035	0	0	-0.247989	0.10329	0.107406	0.0675229	-0.588081	0.953022	0.782063	0.63315	0	0	-0.0295369	-0.316185	0.47648	0.701355	1.03768	0	0
0.01	2.22327	1.48051	-0.54227	0.820364	-0.601298	1.04073	0.375151	0.0658252	0.0496623	0.663085	-0.278982	0	0	-0.281352	-0.212439	-0.331501	0.663847	-0.380343	0	0	-0.245083	0.10244	0.113727	0.0666077	-0.583217	0.954655	0.776082	0.632746	0	0	-0.031172	-0.314768	0.473651	0.697427	1.0391	0	0
0.02	2.23974	1.47955	-0.562775	0.82181	-0.589002	1.04252	0.363825	0.0697723	0.0497487	0.665059	-0.284345	0	0	-0.265334	-0.2223	-0.330333	0.709228	-0.414303	0	0	-0.244623	0.100566	0.11931	0.066223	-0.577663	0.957513	0.768855	0.632238	0	0	-0.032449	-0.313989	0.470404	0.694152	1.04364	0	0
0.03	2.28612	1.47798	-0.612237	0.823078	-0.576933	1.04461	0.346768	0.0710595	0.0455897	0.663141	-0.286754	0	0	-0.250073	-0.230653	-0.327125	0.755073	-0.447306	0	0	-0.247498	0.0975987	0.124286	0.0666043	-0.573258	0.960311	0.763513	0.629608	0	0	-0.033378	-0.314403	0.467331	0.693255	1.04759	0	0
0.04	2.35007	1.47597	-0.678924	0.824313	-0.565197	1.04681	0.326343	0.0704615	0.0395003	0.659117	-0.286482	0	0	-0.234776	-0.237369	-0.322319	0.801364	-0.478766	0	0	-0.252518	0.0937653	0.129009	0.0677002	-0.570777	0.963641	0.761364	0.625839	0	0	-0.0336703	-0.31624	0.46582	0.694901	1.05031	0	0
0.05	2.4243	1.47338	-0.755807	0.825529	-0.553815	1.04913	0.303712	0.0687139	0.0333203	0.653635	-0.284371	0	0	-0.219391	-0.242565	-0.317201	0.846623	-0.505516	0	0	-0.259778	0.0890896	0.133459	0.0693142	-0.570389	0.966475	0.762944	0.621574	0	0	-0.0334685	-0.319455	0.465211	0.699715	1.05186	0	0
0.06	2.50166	1.47072	-0.834857	0.826555	-0.542729	1.05148	0.280631	0.0655669	0.0261363	0.647692	-0.28187	0	0	-0.202951	-0.245607	-0.309537	0.889541	-0.524909	0	0	-0.267575	0.0837981	0.13691	0.0708428	-0.570927	0.967787	0.76637	0.617574	0	0	-0.0326466	-0.323328	0.465532	0.705783	1.05164	0	0
0.07	2.57799	1.47082	-0.912177	0.827708	-0.531746	1.05367	0.261116	0.0603594	0.0205539	0.644102	-0.279675	0	0	-0.183758	-0.244188	-0.298047	0.927285	-0.531583	0	0	-0.26537	0.0858305	0.138862	0.0666578	-0.578708	0.965098	0.778687	0.615692	0	0	-0.0254137	-0.317101	0.472314	0.68629	1.04656	0	0
0.08	2.63299	1.46873	-0.967163	0.828257	-0.521193	1.05573	0.24137	0.0572738	0.0120442	0.638395	-0.276917	0	0	-0.162763	-0.246072	-0.289424	0.968145	-0.529311	0	0	-0.270365	0.0836944	0.147588	0.0582172	-0.585986	0.952629	0.79215	0.608848	0	0	-0.014347	-0.318024	0.489399	0.681351	1.03814	0	0
0.09	2.6857	1.4666	-1.02028	0.828782	-0.510889	1.05781	0.222394	0.0546276	0.00601406	0.632896	-0.275703	0	0	-0.142052	-0.246026	-0.280974	1.0053	-0.505977	0	0	-0.275791	0.0797566	0.155543	0.0518259	-0.58943	0.939844	0.79991	0.60599	0	0	-0.00500288	-0.321632	0.506981	0.682073	1.02686	0	0
0.1	2.72022	1.46238	-1.05514	0.828606	-0.500892	1.06008	0.201899	0.0537933	-0.000164418	0.62502	-0.276653	0	0	-0.121914	-0.246115	-0.272069	1.03956	-0.4744	0	0	-0.278305	0.0533446	0.171628	0.0612006	-0.559124	0.960958	0.750167	0.60076	0	0	-0.00624891	-0.346614	0.517897	0.72812	1.02883	0	0
0.11	2.75253	1.464	-1.08702	0.828666	-0.490743	1.06214	0.187267	0.0502616	-0.00392402	0.6189	-0.276009	0	0	-0.0955451	-0.242599	-0.262844	1.06564	-0.462114	0	0	-0.282431	0.0549919	0.165058	0.0686711	-0.565874	0.963784	0.759831	0.600842	0	0	-0.00503517	-0.342832	0.513771	0.721314	1.02602	0	0
0.12	2.78585	1.46492	-1.11889	0.828465	-0.4807	1.06421	0.170692	0.0463878	-0.00764968	0.610698	-0.27497	0	0	-0.0690961	-0.239254	-0.254596	1.0876	-0.445913	0	0	-0.284268	0.0583811	0.160604	0.0723787	-0.574352	0.963777	0.771165	0.600132	0	0	-0.000612773	-0.335894	0.512081	0.708762	1.02284	0	0
0.13	2.83199	1.46516	-1.16287	0.828306	-0.470791	1.06621	0.15218	0.0411175	-0.0124962	0.601612	-0.273104	0	0	-0.0433141	-0.234787	-0.246905	1.105	-0.426978	0	0	-0.277821	0.0656718	0.164032	0.064782	-0.586985	0.957272	0.786066	0.597016	0	0	0.014015	-0.321194	0.523756	0.676292	1.0169	0	0
0.14	2.84964	1.46145	-1.1802	0.827263	-0.46154	1.06841	0.130564	0.0390997	-0.0177234	0.588631	-0.274243	0	0	-0.0211557	-0.233434	-0.242592	1.12085	-0.381735	0	0	-0.29833	0.0523635	0.165049	0.0762361	-0.581281	0.955707	0.779376	0.595585	0	0	0.0103624	-0.334692	0.513104	0.714445	1.02172	0	0
0.15	2.88626	1.46073	-1.21632	0.826757	-0.452218	1.07033	0.113168	0.0339132	-0.0245054	0.581066	-0.273709	0	0	0.00216039	-0.229155	-0.23907	1.12884	-0.35805	0	0	-0.305724	0.0471016	0.16365	0.0847512	-0.581286	0.959103	0.778011	0.593845	0	0	0.0117687	-0.335502	0.506607	0.721689	1.02457	0	0
0.16	2.91872	1.46044	-1.24852	0.826325	-0.443007	1.0721	0.0969886	0.0285207	-0.0359422	0.573389	-0.274722	0	0	0.0256395	-0.224408	-0.235098	1.13203	-0.33386	0	0	-0.312564	0.0419047	0.16234	0.0940791	-0.580862	0.96414	0.775972	0.592065	0	0	0.0137332	-0.335851	0.500238	0.727623	1.02791	0	0
0.17	2.94866	1.46048	-1.27821	0.825937	-0.43383	1.07369	0.081544	0.0234171	-0.0486241	0.565319	-0.276292	0	0	0.0492364	-0.219504	-0.231774	1.13	-0.312549	0	0	-0.318669	0.0367284	0.161328	0.103647	-0.579634	0.97063	0.772186	0.590462	0	0	0.0164943	-0.335926	0.494964	0.731952	1.03045	0	0
0.18	2.98114	1.46051	-1.31043	0.825533	-0.424677	1.07517	0.0660671	0.0181489	-0.0614506	0.556828	-0.277968	0	0	0.0716554	-0.214937	-0.231129	1.12316	-0.294667	0	0	-0.324606	0.0312312	0.160167	0.113289	-0.57799	0.977919	0.76763	0.589802	0	0	0.0197455	-0.336004	0.491121	0.734997	1.03283	0	0
0.19	3.01659	1.45992	-1.34605	0.825177	-0.415611	1.07657	0.0500584	0.0130316	-0.0720904	0.548493	-0.279028	0	0	0.0921939	-0.210652	-0.233032	1.11129	-0.281787	0	0	-0.331254	0.0255205	0.159732	0.122149	-0.576405	0.983586	0.763307	0.587892	0	0	0.0239139	-0.336032	0.489094	0.73685	1.03509	0	0
0.2	3.0554	1.45974	-1.3846	0.824701	-0.406705	1.07783	0.0348228	0.00728681	-0.082686	0.540595	-0.279912	0	0	0.112716	-0.205257	-0.234714	1.09555	-0.272332	0	0	-0.337874	0.0193288	0.158605	0.131147	-0.574406	0.988493	0.758712	0.584841	0	0	0.0282015	-0.336236	0.487025	0.738692	1.03684	0	0
0.21	3.095	1.46025	-1.42381	0.82416	-0.397919	1.07889	0.0223985	0.000978869	-0.0935187	0.537174	-0.279184	0	0	0.133604	-0.199264	-0.237212	1.07661	-0.266181	0	0	-0.343961	0.0130835	0.156902	0.140351	-0.572399	0.993587	0.754293	0.582444	0	0	0.032585	-0.336566	0.48508	0.740721	1.03737	0	0
0.22	3.13789	1.46145	-1.46677	0.823569	-0.389132	1.07972	0.0101855	-0.00548034	-0.10287	0.532203	-0.277893	0	0	0.153998	-0.193127	-0.24287	1.05496	-0.26192	0	0	-0.348883	0.00641209	0.155512	0.149056	-0.570326	0.998755	0.749796	0.580946	0	0	0.0368598	-0.336769	0.483384	0.742483	1.03732	0	0
0.23	-3.10137	1.46245	-1.5114	0.822953	-0.380417	1.08043	-0.00157321	-0.0116869	-0.109764	0.527934	-0.276082	0	0	0.172838	-0.187409	-0.251492	1.03201	-0.257688	0	0	-0.353592	-0.000201957	0.154532	0.157526	-0.568593	1.00373	0.745696	0.579733	0	0	0.0411493	-0.336818	0.482004	0.743864	1.03716	0	0
0.24	-3.05541	1.46369	-1.55834	0.822259	-0.371785	1.08098	-0.0122541	-0.0178371	-0.114771	0.523381	-0.274955	0	0	0.190872	-0.181789	-0.262662	1.00931	-0.251641	0	0	-0.358035	-0.00685793	0.153398	0.165874	-0.567013	1.00808	0.741899	0.57846	0	0	0.0454245	-0.336855	0.480874	0.745076	1.03724	0	0
0.25	-3.00791	1.46473	-1.60654	0.821394	-0.363276	1.08141	-0.022419	-0.0239869	-0.119108	0.51894	-0.274104	0	0	0.20793	-0.175216	-0.27442	0.9866	-0.244467	0	0	-0.362788	-0.0133312	0.151957	0.174039	-0.565958	1.01166	0.738939	0.577811	0	0	0.0498922	-0.336781	0.479717	0.746499	1.03749	0	0
0.26	-2.96137	1.46573	-1.654	0.820503	-0.354746	1.08166	-0.0319636	-0.0297251	-0.12174	0.515232	-0.272704	0	0	0.223791	-0.168143	-0.286454	0.963145	-0.2351	0	0	-0.367035	-0.0197119	0.150369	0.182162	-0.564773	1.01545	0.736026	0.577591	0	0	0.0534462	-0.337003	0.477507	0.74896	1.03828	0	0
